<svg height="32.907" viewBox="0 0 84.961 32.907" width="84.961" xmlns="http://www.w3.org/2000/svg"><path d="m309.753 105v3.8 5.152a2.881 2.881 0 0 1 -2.872 2.891h-1.768c-3.638.056-3.652.729-3.652.729v-8.945a2.881 2.881 0 0 1 2.873-2.89h1.466c3.94-.026 3.953-.737 3.953-.737z" fill="#06be9e" transform="translate(-256.493 -105)"/><path d="m148.729 156.324-1.409 2.778a7.093 7.093 0 0 0 -2.77-.766c-.948 0-1.337.168-1.337.742 0 .647.875.838 1.944 1.174 1.652.5 3.79 1.413 3.79 3.928 0 3.617-3.353 4.191-5.9 4.191a7.518 7.518 0 0 1 -4.811-1.652l1.75-2.9a6.27 6.27 0 0 0 3.086 1.412c.608 0 1.337-.072 1.337-.886 0-.886-1.361-.958-2.77-1.676-1.264-.647-2.527-1.509-2.527-3.353 0-2.515 2.163-3.952 5.443-3.952a9.622 9.622 0 0 1 4.174.96zm10.84 12.046a5.716 5.716 0 0 1 -4.083-1.533v7.4h-4.3v-18.511h4.252v1.389h.048a5.558 5.558 0 0 1 4.083-1.749 6.51 6.51 0 0 1 0 13zm-1.288-9.388a2.782 2.782 0 0 0 -2.892 2.874 2.9 2.9 0 0 0 5.808 0 2.761 2.761 0 0 0 -2.917-2.873zm9.762-3.257h4.3v1.775h.049a4.89 4.89 0 0 1 3.815-2.132 5.215 5.215 0 0 1 2.722.767l-1.8 3.592a3.664 3.664 0 0 0 -2.236-.671 2.562 2.562 0 0 0 -2.552 2.491v6.466h-4.3zm13.168 12.286h4.3v-12.285h-4.3zm7.922-12.286h4.3v1.293h.049a5.193 5.193 0 0 1 3.572-1.653c2.284 0 5.468 1.126 5.468 4.551v8.1h-4.3v-6.945a2.284 2.284 0 0 0 -2.236-2.4 2.635 2.635 0 0 0 -2.552 2.4v6.945h-4.3zm19.491 13.6a3.769 3.769 0 0 0 3.376 1.585 2.856 2.856 0 0 0 3.038-2.874v-.91c-.923 1.006-2.381 1.245-4.082 1.245a6.51 6.51 0 0 1 0-13 5.742 5.742 0 0 1 4.009 1.461h.073v-1.1h4.3v12.621c0 4.12-3.086 6.251-7.339 6.251-2.6 0-5.589-.575-6.9-3.568zm3.621-4.574a2.782 2.782 0 0 0 2.892-2.874 2.9 2.9 0 0 0 -5.808 0 2.761 2.761 0 0 0 2.914 2.878zm10.948-7.525a1.518 1.518 0 1 1 -1.512-1.455 1.473 1.473 0 0 1 1.511 1.459zm-2.655 0a1.135 1.135 0 0 0 1.152 1.162 1.121 1.121 0 0 0 1.125-1.153 1.139 1.139 0 1 0 -2.277-.009zm.909.763h-.347v-1.455a3.033 3.033 0 0 1 .567-.044.931.931 0 0 1 .513.106.4.4 0 0 1 .144.319.375.375 0 0 1 -.306.337v.018a.431.431 0 0 1 .27.355 1.091 1.091 0 0 0 .109.364h-.369a1.246 1.246 0 0 1 -.117-.355c-.026-.16-.117-.231-.306-.231h-.162zm.009-.825h.162c.189 0 .342-.062.342-.213 0-.133-.1-.222-.315-.222a.826.826 0 0 0 -.189.018z" fill="#242621" transform="translate(-138.231 -141.691)"/></svg>